<svg width="23" height="17" xmlns="http://www.w3.org/2000/svg">

 <g>
  <title>background</title>
  <rect fill="none" id="canvas_background" height="402" width="582" y="-1" x="-1"/>
 </g>
 <g>
  <title>Layer 1</title>
  <path id="svg_1" fill="#ffffff" d="m19.6115,0l-16.87985,0c-1.5068,0 -2.73165,1.22485 -2.73165,2.73165l0,11.53675c0,1.5067 1.22485,2.7316 2.73165,2.7316l16.87525,0c1.5068,0 2.7316,-1.2249 2.7316,-2.7316l0,-11.53213c0.0046,-1.5068 -1.2202,-2.73627 -2.727,-2.73627zm1.4837,14.2684c0,0.8181 -0.6656,1.4836 -1.4837,1.4836l-16.87985,0c-0.81811,0 -1.48369,-0.6655 -1.48369,-1.4836l0,-11.53213c0,-0.81811 0.66558,-1.48369 1.48369,-1.48369l16.87525,0c0.8181,0 1.4836,0.66558 1.4836,1.48369l0,11.53213l0.0047,0z"/>
  <path id="svg_2" fill="#ffffff" d="m14.088,8.35673l5.4633,-4.8994c0.2542,-0.2311 0.2774,-0.62398 0.0462,-0.88282c-0.2311,-0.25421 -0.6239,-0.27732 -0.8828,-0.04622l-7.534,6.7621l-1.46978,-1.31267c-0.00462,-0.00462 -0.00924,-0.00924 -0.00924,-0.01386c-0.03235,-0.03236 -0.06471,-0.06009 -0.10169,-0.08782l-5.98096,-5.35237c-0.25884,-0.2311 -0.65172,-0.20799 -0.88282,0.05084c-0.2311,0.25884 -0.20799,0.65172 0.05084,0.88282l5.52801,4.941l-5.5049,5.15367c-0.24959,0.2357 -0.26345,0.6286 -0.02773,0.8828c0.1248,0.1294 0.29119,0.1987 0.45759,0.1987c0.15253,0 0.30505,-0.0554 0.42523,-0.1664l5.58809,-5.22755l1.51606,1.35425c0.1202,0.1063 0.2681,0.1572 0.416,0.1572c0.1479,0 0.3004,-0.0555 0.416,-0.1618l1.5576,-1.39587l5.5557,5.27837c0.1202,0.1156 0.2774,0.1711 0.4299,0.1711c0.1664,0 0.3282,-0.0647 0.4529,-0.1942c0.2358,-0.2496 0.2265,-0.6471 -0.0231,-0.8828l-5.4864,-5.20907z"/>
 </g>
</svg>