<svg width="10" height="18" xmlns="http://www.w3.org/2000/svg">

 <g>
  <title>background</title>
  <rect fill="none" id="canvas_background" height="402" width="582" y="-1" x="-1"/>
 </g>
 <g>
  <title>Layer 1</title>
  <path id="svg_1" fill="#ffffff" d="m8.8373,0l-7.6746,0c-0.63939,0 -1.1627,0.52282 -1.1627,1.1627l0,14.8884c0,0.6398 0.52331,1.1631 1.1627,1.1631l7.6746,0c0.63939,0 1.1627,-0.5223 1.1627,-1.1627l0,-14.8888c0,-0.63988 -0.52331,-1.1627 -1.1627,-1.1627zm-5.06492,0.83809l2.45524,0c0.07771,0 0.14067,0.06295 0.14067,0.14116c0,0.0777 -0.06296,0.14066 -0.14067,0.14066l-2.45524,0c-0.07771,0 -0.14067,-0.06296 -0.14067,-0.14066c0,-0.07821 0.06296,-0.14116 0.14067,-0.14116zm1.22762,15.79481c-0.32117,0 -0.58135,-0.2602 -0.58135,-0.5818c0,-0.3217 0.26018,-0.5814 0.58135,-0.5814c0.32117,0 0.58135,0.2597 0.58135,0.5814c0,0.3216 -0.26018,0.5818 -0.58135,0.5818zm4.19093,-1.5704l-8.38186,0l0,-13.21861l8.38186,0l0,13.21861z"/>
 </g>
</svg>